<?xml version="1.0" encoding="iso-8859-1"?>
<!-- Generator: Adobe Illustrator 19.0.0, SVG Export Plug-In . SVG Version: 6.00 Build 0)  -->
<svg version="1.1" id="Capa_1" xmlns="http://www.w3.org/2000/svg" xmlns:xlink="http://www.w3.org/1999/xlink" x="0px" y="0px"
	 viewBox="0 0 464 464" style="enable-background:new 0 0 464 464;" xml:space="preserve">
<path style="fill:#F9E0A0;" d="M448,432H16V320c0-17.673,14.327-32,32-32h368c17.673,0,32,14.327,32,32V432z"/>
<path style="fill:#F4CA62;" d="M16,408h432v24H16V408z"/>
<path style="fill:#D9D9D9;" d="M426.336,464H37.664c-13.084,0.001-24.851-7.964-29.712-20.112L0,424h464l-7.952,19.888
	C451.187,456.036,439.42,464.001,426.336,464z"/>
<path style="fill:#F9E0A0;" d="M104,152h256c17.673,0,32,14.327,32,32v112l0,0H72l0,0V184C72,166.327,86.327,152,104,152z"/>
<path style="fill:#F4CA62;" d="M72,272h320v32H72V272z"/>
<path style="fill:#F9E0A0;" d="M208,80h48v88h-48V80z"/>
<path style="fill:#F4CA62;" d="M208,136h48v32h-48V136z"/>
<path style="fill:#CE2931;" d="M232,56c-10.25,0.003-18.562-8.304-18.565-18.555c-0.001-3.232,0.842-6.407,2.445-9.213L232,0
	l16.136,28.232c5.085,8.9,1.993,20.237-6.907,25.323C238.419,55.161,235.237,56.004,232,56L232,56z"/>
<g>
	<path style="fill:#F86688;" d="M360,152H104c-17.673,0-32,14.327-32,32v8c40,0,40,32,80,32s40-32,80-32s40,32,80,32s40-32,80-32v-8
		C392,166.327,377.673,152,360,152z"/>
	<path style="fill:#F86688;" d="M416,288H48c-17.673,0-32,14.327-32,32v16c43.2,0,43.2,32,86.4,32s43.2-32,86.4-32s43.2,32,86.4,32
		s43.2-32,86.4-32s43.2,32,86.4,32v-48C448,302.327,433.673,288,416,288z"/>
</g>
<g>
	<path style="fill:#EA9D2D;" d="M384,32h16v16h-16V32z"/>
	<path style="fill:#EA9D2D;" d="M384,80h16v16h-16V80z"/>
	<path style="fill:#EA9D2D;" d="M408,56h16v16h-16V56z"/>
	<path style="fill:#EA9D2D;" d="M360,56h16v16h-16V56z"/>
	<path style="fill:#EA9D2D;" d="M32,88h16v16H32V88z"/>
	<path style="fill:#EA9D2D;" d="M32,136h16v16H32V136z"/>
	<path style="fill:#EA9D2D;" d="M56,112h16v16H56V112z"/>
	<path style="fill:#EA9D2D;" d="M8,112h16v16H8V112z"/>
	<path style="fill:#EA9D2D;" d="M128,248h16v16h-16V248z"/>
	<path style="fill:#EA9D2D;" d="M192,248h16v16h-16V248z"/>
	<path style="fill:#EA9D2D;" d="M256,248h16v16h-16V248z"/>
	<path style="fill:#EA9D2D;" d="M320,248h16v16h-16V248z"/>
	<path style="fill:#EA9D2D;" d="M224,216h16v16h-16V216z"/>
	<path style="fill:#EA9D2D;" d="M64,384h16v16H64V384z"/>
	<path style="fill:#EA9D2D;" d="M144,384h16v16h-16V384z"/>
	<path style="fill:#EA9D2D;" d="M184,360h16v16h-16V360z"/>
	<path style="fill:#EA9D2D;" d="M352,360h16v16h-16V360z"/>
	<path style="fill:#EA9D2D;" d="M224,384h16v16h-16V384z"/>
	<path style="fill:#EA9D2D;" d="M312,384h16v16h-16V384z"/>
	<path style="fill:#EA9D2D;" d="M392,384h16v16h-16V384z"/>
</g>
<g>
</g>
<g>
</g>
<g>
</g>
<g>
</g>
<g>
</g>
<g>
</g>
<g>
</g>
<g>
</g>
<g>
</g>
<g>
</g>
<g>
</g>
<g>
</g>
<g>
</g>
<g>
</g>
<g>
</g>
</svg>
