<svg id="icon" height="512" viewBox="0 0 128 128" width="512" xmlns="http://www.w3.org/2000/svg"><ellipse cx="64" cy="91.792" fill="#f0f5f9" rx="63" ry="17.719"/><path d="m64 110.511c-35.888 0-64-8.222-64-18.719s28.112-18.719 64-18.719 64 8.223 64 18.719-28.112 18.719-64 18.719zm0-35.438c-37.087 0-62 8.645-62 16.719s24.913 16.719 62 16.719 62-8.645 62-16.719-24.913-16.719-62-16.719z" fill="#2f3a5a"/><path d="m11.063 43.433v42.714c0 8.223 23.7 14.889 52.937 14.889s52.937-6.666 52.937-14.889v-42.714z" fill="#f0f5f9"/><path d="m64 102.036c-26.514 0-53.937-5.943-53.937-15.889v-42.713a1 1 0 0 1 1-1h105.875a1 1 0 0 1 1 1v42.712c0 9.946-27.424 15.89-53.938 15.89zm-51.937-57.6v41.71c0 6.708 20.87 13.889 51.938 13.889s51.938-7.182 51.938-13.889v-41.712z" fill="#2f3a5a"/><path d="m116.932 43.432v42.717c0 8.222-23.69 14.881-52.936 14.881s-52.936-6.659-52.936-14.881v-42.717z" fill="#ffd684"/><path d="m116.932 43.432v42.717c0 8.222-23.69 14.881-52.936 14.881-28.764 0-52.172-6.448-52.924-14.482 9.3 4.264 26.039 7.106 45.137 7.106 29.245 0 52.936-6.66 52.936-14.881v-35.341z" fill="#fdb978"/><path d="m64 102.031c-26.513 0-53.936-5.94-53.936-15.881v-42.718a1 1 0 0 1 1-1h105.868a1 1 0 0 1 1 1v42.717c0 9.941-27.423 15.882-53.932 15.882zm-51.936-57.6v41.718c0 6.7 20.869 13.881 51.936 13.881s51.936-7.178 51.936-13.881v-41.717z" fill="#2f3a5a"/><path d="m116.932 43.432v12.849c0 8.222-23.69 14.893-52.936 14.893s-52.936-6.674-52.936-14.893v-12.849z" fill="#f0f5f9"/><path d="m116.932 43.432v12.849c0 8.222-23.69 14.893-52.936 14.893-23.009 0-42.588-4.134-49.882-9.9 9.467 4.052 25.746 6.718 44.233 6.718 29.245 0 52.936-6.671 52.936-14.893v-9.667z" fill="#d9e2e9"/><path d="m64 72.174c-26.513 0-53.936-5.945-53.936-15.893v-12.849a1 1 0 0 1 1-1h105.868a1 1 0 0 1 1 1v12.849c0 9.948-27.423 15.893-53.932 15.893zm-51.939-27.742v11.849c0 6.709 20.869 13.893 51.936 13.893s51.936-7.184 51.936-13.893v-11.849z" fill="#2f3a5a"/><ellipse cx="64" cy="43.434" fill="#f0f5f9" rx="52.937" ry="14.889"/><path d="m64 59.322c-26.514 0-53.937-5.943-53.937-15.889s27.423-15.888 53.937-15.888 53.938 5.943 53.938 15.889-27.424 15.888-53.938 15.888zm0-29.777c-31.067 0-51.937 7.181-51.937 13.889s20.87 13.888 51.937 13.888 51.938-7.181 51.938-13.889-20.871-13.888-51.938-13.888z" fill="#2f3a5a"/><ellipse cx="65.523" cy="39.084" fill="#ef5361" rx="14.132" ry="8.563"/><path d="m65.522 48.647c-8.485 0-15.132-4.2-15.132-9.563s6.646-9.563 15.132-9.563 15.132 4.2 15.132 9.563-6.646 9.563-15.132 9.563zm0-17.126c-7.118 0-13.132 3.464-13.132 7.563s6.014 7.563 13.132 7.563 13.132-3.463 13.132-7.563-6.013-7.563-13.132-7.563z" fill="#2f3a5a"/><path d="m76.844 29.287a18.134 18.134 0 0 0 -4.323-3.807 8.918 8.918 0 0 1 -3.58-4.412 10.423 10.423 0 0 0 -.449-1.621 1.5 1.5 0 0 0 -1.273-.958 2.062 2.062 0 0 0 -1.018.4l-3.21 2a35.211 35.211 0 0 0 -4.54 3.176 11.785 11.785 0 0 0 -3.3 4.391 7.124 7.124 0 0 0 -.08 5.4 5.14 5.14 0 0 0 4.227 3.147l2.054 1.976a17.105 17.105 0 0 0 9.471 1.685 10.1 10.1 0 0 0 3.194-.826 7.159 7.159 0 0 0 2.831-10.561z" fill="#ef5361"/><path d="m76.472 37.925a7.254 7.254 0 0 1 -2.461 1.923 10.194 10.194 0 0 1 -3.191.824 17.065 17.065 0 0 1 -9.474-1.686l-2.055-1.973a5.128 5.128 0 0 1 -4.222-3.148 7.13 7.13 0 0 1 .075-5.4 11.822 11.822 0 0 1 3.3-4.39 35.229 35.229 0 0 1 4.54-3.179q1.611-1 3.21-2a2.1 2.1 0 0 1 1.018-.4 1.252 1.252 0 0 1 .887.393 27.8 27.8 0 0 0 -3.266 2.379 11.771 11.771 0 0 0 -3.31 4.39 8.4 8.4 0 0 0 -.075 5.4c1.044 3.7 6.276 5.121 6.276 5.121a17.082 17.082 0 0 0 8.748 1.746z" fill="#da2a47"/><path d="m68.667 41.786c-.8 0-1.62-.041-2.449-.122a16.549 16.549 0 0 1 -10.17-4.937 9.181 9.181 0 0 1 -1.9-2.467 8.106 8.106 0 0 1 .07-6.171 12.72 12.72 0 0 1 3.576-4.772 36.067 36.067 0 0 1 4.667-3.27l3.21-2a2.985 2.985 0 0 1 1.531-.556 2.474 2.474 0 0 1 2.2 1.537 6.011 6.011 0 0 1 .386 1.271c.037.168.073.336.119.5.459 1.647 1.96 2.939 3.216 3.881.257.192.518.382.778.572a15.208 15.208 0 0 1 3.767 3.464 8.158 8.158 0 0 1 -3.227 12.036 11.022 11.022 0 0 1 -3.509.915 20.516 20.516 0 0 1 -2.265.119zm-1.432-22.3a1.785 1.785 0 0 0 -.5.253l-3.209 2a34.6 34.6 0 0 0 -4.413 3.083 10.75 10.75 0 0 0 -3.033 4.009 6.106 6.106 0 0 0 -.088 4.635 7.293 7.293 0 0 0 1.489 1.856 14.55 14.55 0 0 0 8.936 4.347 21.121 21.121 0 0 0 4.3.005 9.1 9.1 0 0 0 2.879-.737 6.158 6.158 0 0 0 2.436-9.085 13.536 13.536 0 0 0 -3.3-2.988c-.269-.2-.536-.391-.8-.588-1.51-1.132-3.322-2.716-3.942-4.944-.057-.2-.1-.4-.146-.61a4.376 4.376 0 0 0 -.247-.859.669.669 0 0 0 -.362-.374z" fill="#2f3a5a"/></svg>