<svg id="Capa_1" enable-background="new 0 0 512 512" height="512" viewBox="0 0 512 512" width="512" xmlns="http://www.w3.org/2000/svg"><g><path d="m39.662 460.865 18.663 36.991c1.19 2.359 3.607 3.847 6.25 3.847h382.851c2.642 0 5.059-1.488 6.25-3.847l18.663-36.991z" fill="#62dbfa"/><path d="m460.22 170.13v102.675l-10 11.625v47.57l10 11.081v85.649h-408.44v-85.649l10-12.081v-46.57l-10-11.625v-102.675c0-16.57 13.43-30 30-30h348.44c16.57 0 30 13.43 30 30z" fill="#fef0db"/><path d="m460.22 398.13v30.6h-408.44v-258.6c0-16.57 13.43-30 30-30h23.28c-1.16 3.22-1.77 6.68-1.77 10.3v232.24c0 8.53 6.92 15.46 15.45 15.46z" fill="#fbe2c1"/><path d="m51.78 272.805h408.44v70.276h-408.44z" fill="#be5e2e"/><path d="m51.777 272.805h51.509v70.279h-51.509z" fill="#ac4f27"/><g><g><path d="m212.137 61.013c-1.524 0-3.063-.451-4.409-1.387l-16.163-11.26c-5.472-3.812-9.132-9.527-10.306-16.092-1.174-6.564.279-13.194 4.091-18.666 2.439-3.502 7.253-4.362 10.757-1.924 3.501 2.44 4.362 7.256 1.924 10.757-2.999 4.305-1.937 10.246 2.368 13.244l16.163 11.26c3.501 2.44 4.362 7.256 1.924 10.757-1.504 2.156-3.907 3.311-6.349 3.311z" fill="#be5e2e"/></g></g><path d="m212.082 53.466-12.916 18.529c-13.552 19.448-8.77 46.201 10.68 59.75l.605.421c10.963 7.637 24.589 9.901 37.258 6.275l.072-.021c12.056-3.454 24.827-3.516 36.914-.179 6.17 2.144 12.671 2.106 18.569.189 5.894-1.911 11.181-5.701 14.914-11.06s5.456-11.632 5.206-17.823c-.246-6.197-2.463-12.308-6.613-17.353-3.659-5.09-6.58-10.635-8.706-16.472-2.123-5.835-3.451-11.966-3.92-18.216l-.005-.074c-.99-13.14-7.836-25.137-18.799-32.774l-.605-.421c-19.45-13.549-46.202-8.762-59.748 10.69z" fill="#fd4755"/><g><g><path d="m236.137 107.64c-1.524 0-3.063-.45-4.409-1.387l-7.056-4.915c-3.501-2.44-4.362-7.255-1.924-10.757 2.439-3.501 7.253-4.365 10.757-1.924l7.056 4.915c3.501 2.44 4.362 7.255 1.924 10.757-1.503 2.156-3.906 3.311-6.348 3.311z" fill="#fe646f"/></g><g><path d="m259.521 69.396c-1.524 0-3.063-.45-4.409-1.387l-7.056-4.915c-3.501-2.44-4.362-7.255-1.924-10.757 2.439-3.501 7.253-4.364 10.757-1.924l7.056 4.915c3.501 2.44 4.362 7.255 1.924 10.757-1.503 2.156-3.905 3.311-6.348 3.311z" fill="#fe646f"/></g><g><path d="m279.213 107.64c-1.524 0-3.063-.45-4.409-1.387l-7.056-4.915c-3.501-2.44-4.362-7.255-1.924-10.757 2.439-3.501 7.253-4.365 10.757-1.924l7.056 4.915c3.501 2.44 4.362 7.255 1.924 10.757-1.503 2.156-3.905 3.311-6.348 3.311z" fill="#fe646f"/></g></g><path d="m467.136 471.167h-364.251c-5.372 0-8.858 5.663-6.439 10.459l10.126 20.076h-41.998c-2.642 0-5.059-1.488-6.25-3.847l-18.663-36.99h432.676z" fill="#01d0fb"/><path d="m491.396 460.865c5.687 0 10.837-2.287 14.567-5.983 3.729-3.696 6.037-8.8 6.037-14.436 0-11.281-9.22-20.419-20.604-20.419h-470.792c-5.687 0-10.838 2.287-14.567 5.983s-6.037 8.8-6.037 14.436c0 11.271 9.22 20.419 20.604 20.419z" fill="#98e5fb"/><path d="m72.113 460.866h-51.509c-11.384 0-20.604-9.148-20.604-20.419 0-5.635 2.308-10.745 6.037-14.433 3.729-3.698 8.88-5.985 14.567-5.985h51.509c-5.687 0-10.838 2.287-14.567 5.985-3.729 3.688-6.037 8.798-6.037 14.433 0 11.271 9.22 20.419 20.604 20.419z" fill="#62dbfa"/><path d="m393.81 139.644.007 2.539c.029 10.195-8.227 18.475-18.422 18.475h-2.487c-10.174 0-18.422 8.248-18.422 18.422v20.965c0 10.874-8.815 19.689-19.689 19.69h-.59c-10.551.001-19.105-8.552-19.105-19.103v-.989c0-10.743-8.552-19.295-19.102-19.294-.197 0-.394 0-.591 0-10.875 0-19.692 8.817-19.692 19.692 0 10.876-8.816 19.692-19.692 19.692-10.876 0-19.692-8.816-19.692-19.692v-19.691c0-10.875-8.816-19.692-19.692-19.692h-.59c-10.55 0-19.102 8.552-19.102 19.102v.988c0 10.743-8.552 19.294-19.101 19.294-.197 0-.394 0-.591 0-10.876 0-19.692-8.816-19.692-19.692v-1.269c0-10.174-8.248-18.422-18.422-18.422h-2.539c-10.174 0-18.422-8.248-18.422-18.422v-2.539c0-10.174 8.248-18.422 18.422-18.422h238.783c10.155-.002 18.394 8.214 18.423 18.368z" fill="#fe646f"/><g fill="#fd4755"><path d="m187.771 197.255c-2.895 1.772-6.295 2.781-9.921 2.781h-.587c-10.879 0-19.697-8.808-19.697-19.687v-1.267c0-10.178-8.252-18.43-18.42-18.43h-2.545c-10.168 0-18.42-8.241-18.42-18.42v-2.534c0-10.178 8.252-18.43 18.42-18.43h20.604c-10.168 0-18.42 8.252-18.42 18.43v2.534c0 10.178 8.252 18.42 18.42 18.42h2.545c10.168 0 18.42 8.252 18.42 18.43v1.267c0 7.192 3.853 13.476 9.601 16.906z"/><path d="m262.706 213.965c1.092 1.092 2.308 2.05 3.626 2.854-2.998 1.854-6.531 2.915-10.302 2.915-5.439 0-10.364-2.205-13.928-5.769s-5.769-8.489-5.769-13.928v-19.687c0-7.191-3.853-13.485-9.601-16.916 2.895-1.762 6.294-2.782 9.921-2.782h.598c10.868 0 19.687 8.818 19.687 19.697v19.687c-.001 5.44 2.204 10.365 5.768 13.929z"/><path d="m344.874 216.953c-2.946 1.772-6.397 2.781-10.075 2.781h-.587c-10.559 0-19.11-8.551-19.11-19.1v-.989c0-7.047-3.678-13.145-9.179-16.504 2.957-1.782 6.408-2.792 10.096-2.792h.587c10.549 0 19.1 8.55 19.1 19.295v.989c-.001 6.914 3.666 12.961 9.168 16.32z"/></g></g></svg>