<svg id="Capa_1" enable-background="new 0 0 512 512" height="512" viewBox="0 0 512 512" width="512" xmlns="http://www.w3.org/2000/svg"><g><path d="m297.15 0v30h-2.13c-13.25 0-24.02 10.77-24.02 24.02h-30c0-14.47 5.71-27.62 15-37.32 9.84-10.29 23.69-16.7 39.02-16.7z" fill="#682a00"/><path d="m302.05 79.3c0 19.92-12.65 36.89-30.35 43.31v20.27h-31.4v-20.27c-17.7-6.42-30.35-23.39-30.35-43.31 0-25.44 20.61-46.05 46.05-46.05s46.05 20.61 46.05 46.05z" fill="#ff7b49"/><path d="m302.05 79.3c0 19.92-12.65 36.89-30.35 43.31v20.27h-15.7v-109.63c25.44 0 46.05 20.61 46.05 46.05z" fill="#fd435b"/><path d="m448.14 161.04v270.28h-384.28v-119.43l192.14-76.12 192.11-76.11c.02.46.03.92.03 1.38z" fill="#b46615"/><path d="m448.14 161.04v270.28h-192.14v-195.55l192.11-76.11c.02.46.03.92.03 1.38z" fill="#874208"/><path d="m501.7 416.33-28.34 95.67h-434.71l-28.35-95.67z" fill="#ffd400"/><path d="m501.7 416.33-28.34 95.67h-217.36v-95.67z" fill="#fdbf00"/><path d="m0 401.32h512v30h-512z" fill="#fdbf00"/><path d="m256 401.32h256v30h-256z" fill="#ff9f00"/><g><path d="m448.11 159.66c-.78 22.11-18.96 39.8-41.26 39.8-9.82 0-18.71 3.98-25.15 10.42s-10.42 15.33-10.42 25.15c0 10.61-4.3 20.22-11.25 27.18-6.96 6.95-16.57 11.25-27.18 11.25s-20.21 4.3-27.17 11.26c-6.95 6.95-11.25 16.56-11.25 27.17v81c0 21.22-17.21 38.43-38.43 38.43-10.61 0-20.22-4.3-27.17-11.26-6.96-6.95-11.26-16.56-11.26-27.17v-81c0-21.22-17.2-38.43-38.42-38.43-10.61 0-20.22 4.3-27.18 11.26-6.95 6.95-11.25 16.56-11.25 27.17s-4.3 20.22-11.26 27.17c-6.95 6.96-16.56 11.26-27.17 11.26s-20.22-4.3-27.17-11.26c-6.96-6.95-11.26-16.56-11.26-27.17v-150.85c0-21.22 17.21-38.43 38.43-38.43h307.42c20.76 0 37.68 16.47 38.4 37.05z" fill="#fff9e1"/><path d="m448.11 159.66c-.78 22.11-18.96 39.8-41.26 39.8-9.82 0-18.71 3.98-25.15 10.42s-10.42 15.33-10.42 25.15c0 10.61-4.3 20.22-11.25 27.18-6.96 6.95-16.57 11.25-27.18 11.25s-20.21 4.3-27.17 11.26c-6.95 6.95-11.25 16.56-11.25 27.17v81c0 21.22-17.21 38.43-38.43 38.43v-308.71h153.71c20.76 0 37.68 16.47 38.4 37.05z" fill="#ffdea8"/></g></g></svg>