<?xml version="1.0" encoding="UTF-8"?>
<svg xmlns="http://www.w3.org/2000/svg" viewBox="0 0 512 512" width="512" height="512"><g id="filled_outline" data-name="filled outline"><ellipse cx="256" cy="377.358" rx="232" ry="94.642" style="fill:#eaeae8"/><ellipse cx="256" cy="381.895" rx="144" ry="34.105" style="fill:#cbcbcb"/><path d="M76,208H456a0,0,0,0,1,0,0V364a20,20,0,0,1-20,20H76a20,20,0,0,1-20-20V228A20,20,0,0,1,76,208Z" style="fill:#f6bb92"/><path d="M456,208H76a19.994,19.994,0,0,0-20,20v-4.87a20.014,20.014,0,0,1,14.56-19.25L424,104l.94,1.41A185.086,185.086,0,0,1,456,208Z" style="fill:#fdc9a6"/><path d="M344,199.36v28.49A21.8,21.8,0,0,1,340.33,240a21.283,21.283,0,0,1-2.11,2.7,21.867,21.867,0,0,1-14.29,7.02,13.058,13.058,0,0,0-11.95,13.04l.02,14.88a15.98,15.98,0,0,1-16.129,16A16.269,16.269,0,0,1,280,277.23V264.36a11.984,11.984,0,0,0-11.975-12A12.332,12.332,0,0,0,256,264.71v26.93a15.98,15.98,0,0,1-16.129,16A16.269,16.269,0,0,1,224,291.23V253.64a15.987,15.987,0,0,0-4.68-11.32A16,16,0,0,0,192,253.64v4.41a19.6,19.6,0,0,1-19.59,19.59A20.413,20.413,0,0,0,152,298.05v-.41a15.98,15.98,0,0,1-16.129,16A16.269,16.269,0,0,1,120,297.23V261.64a15.978,15.978,0,0,0-16.129-16A16.268,16.268,0,0,0,88,262.05v15.59a15.98,15.98,0,0,1-16.129,16A16.269,16.269,0,0,1,56,277.23V228.02a67.443,67.443,0,0,1,.72-10.19,20.013,20.013,0,0,1,13.84-13.95h0a172.254,172.254,0,0,1,48.347-6.485Z" style="fill:#e82f3e"/><path d="M379.96,116.45,376,160v17.98a30.045,30.045,0,0,1-30.38,30.04H62.9a20.06,20.06,0,0,1,7.66-4.14Z" style="fill:#fbb540"/><path d="M379.96,116.45,376,160v17.98a30.045,30.045,0,0,1-30.38,30.04L344,208l-267.98.02Z" style="fill:#fbb540"/><path d="M56,344H376a40,40,0,0,0,40-40h0a24,24,0,0,1,24-24h16v84a20,20,0,0,1-20,20H76a20,20,0,0,1-20-20Z" style="fill:#8f6934"/><path d="M328,144h0a25.887,25.887,0,0,1-14.311,23.155L296,176" style="fill:#fff;stroke:#000;stroke-linecap:round;stroke-linejoin:round;stroke-width:16px"/><path d="M368,280a7.976,7.976,0,0,1-5.657-2.343l-8-8a8,8,0,0,1,11.314-11.314l8,8A8,8,0,0,1,368,280Z" style="fill:#e6af89"/><path d="M368,320a7.976,7.976,0,0,1-5.657-2.343c-3.124-3.125-.9-8.189,2.227-11.314l5.773-8a8,8,0,0,1,11.314,11.314l-8,8A7.976,7.976,0,0,1,368,320Z" style="fill:#e6af89"/><path d="M186.227,320a8,8,0,0,1-5.657-13.657l8-8a8,8,0,0,1,11.314,11.314l-8,8A7.976,7.976,0,0,1,186.227,320Z" style="fill:#e6af89"/><path d="M392,256a8,8,0,0,1-5.657-13.657l8-8a8,8,0,0,1,11.314,11.314l-8,8A7.976,7.976,0,0,1,392,256Z" style="fill:#e6af89"/><path d="M379.96,116.45,376,160v17.98a30.045,30.045,0,0,1-30.38,30.04H62.9a20.06,20.06,0,0,1,7.66-4.14Z" style="fill:#ff3444"/><path d="M272,176V162a18,18,0,0,1,18-18h30.076a124.239,124.239,0,0,0,46.137-8.885L384,128v7.781A40.219,40.219,0,0,1,343.781,176Z" style="fill:#eaeae8"/><path d="M364.205,129.014l2.317-3.958a51.189,51.189,0,0,0,.2-51.387h0a51.191,51.191,0,0,0-51.773-25.13L248,58.32l24.237,63.168a51.191,51.191,0,0,0,47.253,32.849h0A51.193,51.193,0,0,0,364.205,129.014Z" style="fill:#e82f3e"/><path d="M366.52,125.06l-2.32,3.95a51.167,51.167,0,0,1-44.18,25.33h-.53a51,51,0,0,1-24.93-6.79l35.1-22.88-5.72-21.89,21.89-5.72L356.4,60.97a51.2,51.2,0,0,1,10.12,64.09Z" style="fill:#029532"/><circle cx="298.007" cy="115.409" r="8" style="fill:#961b20"/><circle cx="289.422" cy="82.572" r="8" style="fill:#961b20"/><circle cx="322.26" cy="73.987" r="8" style="fill:#961b20"/><path d="M464,325.261V208a192.349,192.349,0,0,0-32.407-107.033l-.937-1.405a8,8,0,0,0-8.832-3.26l-40.952,11.573a59.152,59.152,0,0,0-67.08-67.252L246.844,50.4a8,8,0,0,0-6.313,10.783l24.237,63.168a59.813,59.813,0,0,0,7.75,14.143L68.384,196.187A28,28,0,0,0,48,223.131v102.13c-20.95,15.5-32,33.444-32,52.1,0,28.747,25.9,55.145,72.93,74.33C133.686,469.945,193.019,480,256,480s122.314-10.055,167.07-28.312C470.1,432.5,496,406.105,496,377.358,496,358.706,484.95,340.759,464,325.261ZM384,177.979V162.338a47.923,47.923,0,0,0,8-26.557V121.357l28.525-8.062A176.251,176.251,0,0,1,447.8,200H376.977A37.735,37.735,0,0,0,384,177.979Zm-8-46.839v4.641A32.255,32.255,0,0,1,343.781,168h-17.77a33.828,33.828,0,0,0,4.928-6.184c.113-.183.212-.371.309-.56a59.352,59.352,0,0,0,39.185-27.089ZM353.511,99.306l6.314-21.576a43.285,43.285,0,0,1-.206,43.283l-2.318,3.958h0a43.212,43.212,0,0,1-37.726,21.365,43.781,43.781,0,0,1-7.408-.714l21.865-14.246a8,8,0,0,0,3.372-8.727l-3.7-14.152,14.151-3.7A8,8,0,0,0,353.511,99.306ZM259.051,64.79,316.1,56.455a42.987,42.987,0,0,1,31.115,7.384l-7.792,26.626-17.509,4.577a8,8,0,0,0-5.716,9.764l4.264,16.313L295.322,137.5a8.04,8.04,0,0,0-.768.575,43.131,43.131,0,0,1-14.847-19.456ZM307.907,161.1,294.112,168H280v-6a10.07,10.07,0,0,1,7.132-9.578A58.785,58.785,0,0,0,307.907,161.1ZM264.4,157.417A26.452,26.452,0,0,0,264,162v14a8,8,0,0,0,8,8h71.781A47.908,47.908,0,0,0,368,177.45v.529A22.009,22.009,0,0,1,346.205,200H113.723ZM64,223.131a11.911,11.911,0,0,1,2.4-7.2,8.084,8.084,0,0,0,.978.066H336v11.854a13.864,13.864,0,0,1-12.757,13.893,21.193,21.193,0,0,0-19.267,21.023L304,277.642a8,8,0,1,1-16,0V264.358a20,20,0,1,0-40,0v27.284a8,8,0,1,1-16,0v-38a24,24,0,0,0-48,0v4.411a11.6,11.6,0,0,1-11.589,11.589,28.446,28.446,0,0,0-28.4,27.534c-.009.154-.013.309-.013.466a8,8,0,0,1-16,0v-36a24,24,0,0,0-48,0v16a8,8,0,0,1-16,0Zm0,77.135a23.992,23.992,0,0,0,32-22.624v-16a8,8,0,0,1,16,0v36a24,24,0,0,0,47.98.974c.014-.186.02-.374.02-.563a12.424,12.424,0,0,1,12.411-12.411A27.62,27.62,0,0,0,200,258.053v-4.411a8,8,0,0,1,16,0v38a24,24,0,1,0,48,0V264.358a4,4,0,1,1,8,0v13.284a24,24,0,1,0,48-.013l-.024-14.886a5.1,5.1,0,0,1,4.632-5.055A29.769,29.769,0,0,0,352,227.854V216h96v56h-8a32.036,32.036,0,0,0-32,32,32.036,32.036,0,0,1-32,32H64ZM64,352H376a48.054,48.054,0,0,0,48-48,16.019,16.019,0,0,1,16-16h8v76a12.013,12.013,0,0,1-12,12H76a12.013,12.013,0,0,1-12-12Zm312.576,40a165.221,165.221,0,0,1-25.437,7.319c-26,5.6-59.793,8.681-95.139,8.681-36.343,0-70.827-3.235-97.1-9.11A159.264,159.264,0,0,1,135.449,392Zm40.451,44.873C374.145,454.366,316.958,464,256,464s-118.145-9.634-161.027-27.127C54.953,420.547,32,398.855,32,377.358c0-12.231,7.252-22.875,16-31.266V364a28.032,28.032,0,0,0,28,28h31.325c6.453,9.334,22.294,16.735,48.086,22.5C182.793,420.628,218.517,424,256,424c36.444,0,71.428-3.21,98.506-9.039,26.639-5.734,43.464-13.448,50.143-22.961H436a28.032,28.032,0,0,0,28-28V346.093c8.748,8.391,16,19.034,16,31.265C480,398.855,457.047,420.547,417.027,436.873Z"/><path d="M291.1,111.367a8,8,0,1,0,10.946-2.861A8,8,0,0,0,291.1,111.367Z"/><path d="M285.38,89.476a8,8,0,1,0-2.861-10.946A8,8,0,0,0,285.38,89.476Z"/><path d="M318.218,80.891a8,8,0,1,0-2.862-10.946A8,8,0,0,0,318.218,80.891Z"/><path d="M368,280a8,8,0,0,0,5.657-13.657l-8-8a8,8,0,0,0-11.314,11.314l8,8A7.976,7.976,0,0,0,368,280Z"/><path d="M381.657,298.343a8,8,0,0,0-11.314,0l-8,8a8,8,0,0,0,11.314,11.314l8-8A8,8,0,0,0,381.657,298.343Z"/><path d="M186.343,298.343l-8,8a8,8,0,0,0,11.314,11.314l8-8a8,8,0,1,0-11.314-11.314Z"/><path d="M392,256a7.976,7.976,0,0,0,5.657-2.343l8-8a8,8,0,0,0-11.314-11.314l-8,8A8,8,0,0,0,392,256Z"/></g></svg>
